<svg width="94" height="96" viewBox="0 0 94 96" fill="#fff" xmlns="http://www.w3.org/2000/svg">
<path d="M71.2581 34.0645H67.0887C68.8216 30.7324 69.7419 27.0395 69.7419 23.2258C69.7419 10.4191 59.5399 0 47 0H22.7419C10.202 0 0 10.4191 0 23.2258C0 32.4108 5.44139 40.8232 13.6452 44.4914V61.9355H17.3051L24.4112 54.6782C24.3172 55.536 24.2581 56.4062 24.2581 57.2903C24.2581 70.097 34.4601 80.5161 47 80.5161H61.5336L76.6949 96H80.3548V78.5559C88.5586 74.8877 94 66.4738 94 57.2903C94 44.4836 83.798 34.0645 71.2581 34.0645ZM25.8379 48.8408L16.6774 58.1977V42.3902L15.7025 42.0093C8.12342 39.0441 3.03226 31.4957 3.03226 23.2258C3.03226 12.127 11.8743 3.09677 22.7419 3.09677H47C57.8676 3.09677 66.7097 12.127 66.7097 23.2258C66.7097 27.0921 65.6226 30.8175 63.5789 34.0645H60.6452V24.7742H56.5622C56.3484 24.1548 56.1044 23.551 55.833 22.9641L58.7166 20.0191L50.1414 11.2614L47.2577 14.2065C46.6816 13.9277 46.0903 13.6785 45.4839 13.4601V9.29032H33.3548V13.4601C32.7484 13.6785 32.1571 13.9277 31.5825 14.2049L28.6988 11.2599L20.1236 20.0175L23.0073 22.9626C22.7344 23.551 22.4903 24.1548 22.2765 24.7742H18.1935V37.1613H22.2765C22.4903 37.7806 22.7344 38.3845 23.0057 38.9714L20.1221 41.9164L26.1396 48.0619C26.0304 48.3174 25.9379 48.5806 25.8379 48.8408ZM39.4194 21.6774C34.4025 21.6774 30.3226 25.8441 30.3226 30.9677C30.3226 33.8957 31.6962 36.6008 33.9128 38.3272C31.3839 40.1528 29.2446 42.4939 27.6208 45.1959L24.4097 41.9164L26.7445 39.5319L26.1851 38.5099C25.6211 37.4818 25.1693 36.3639 24.8433 35.1902L24.5325 34.0645H21.2258V27.871H24.5325L24.8448 26.7437C25.1708 25.5701 25.6226 24.4537 26.1866 23.424L26.746 22.4021L24.4112 20.0175L28.6988 15.6387L31.0336 18.0232L32.0343 17.4519C33.041 16.8759 34.1356 16.4144 35.2849 16.0815L36.3871 15.7641V12.3871H42.4516V15.7641L43.5554 16.0831C44.7046 16.416 45.7977 16.8774 46.8059 17.4534L47.8066 18.0248L50.1414 15.6403L54.429 20.0191L52.0942 22.4036L52.6536 23.4255C53.2176 24.4537 53.6694 25.5716 53.9954 26.7453L54.3062 27.871H57.6129V34.0645H47.9734C48.3266 33.0751 48.5161 32.0346 48.5161 30.9677C48.5161 25.8441 44.4362 21.6774 39.4194 21.6774ZM45.4839 30.9677C45.4839 32.1151 45.1458 33.2175 44.5317 34.207C41.7982 34.5104 39.2177 35.3249 36.8586 36.5311C34.7466 35.5185 33.3548 33.3615 33.3548 30.9677C33.3548 27.552 36.0748 24.7742 39.4194 24.7742C42.7639 24.7742 45.4839 27.552 45.4839 30.9677ZM78.2975 76.0738L77.3226 76.4547V92.2622L62.789 77.4193H47C36.1324 77.4193 27.2903 68.3892 27.2903 57.2903C27.2903 46.1915 36.1324 37.1613 47 37.1613H71.2581C82.1257 37.1613 90.9677 46.1915 90.9677 57.2903C90.9677 65.5603 85.8766 73.1086 78.2975 76.0738Z" fill="white"/>
<path d="M72.7742 54.1935C72.7742 46.5089 66.6536 40.2581 59.129 40.2581C51.6045 40.2581 45.4839 46.5089 45.4839 54.1935C45.4839 58.1837 47.1319 61.9246 50.0323 64.5708V65.0322H47V68.129H50.0323V74.3226H68.2258V68.129H71.2581V65.0322H68.2258V64.5708C71.1262 61.9246 72.7742 58.1837 72.7742 54.1935ZM65.1936 71.2258H53.0645V68.129H57.6129H60.6452H65.1936V71.2258ZM59.129 57.2903C57.4568 57.2903 56.0968 55.9014 56.0968 54.1935C56.0968 52.4857 57.4568 51.0968 59.129 51.0968C60.8013 51.0968 62.1613 52.4857 62.1613 54.1935C62.1613 55.9014 60.8013 57.2903 59.129 57.2903ZM65.7606 62.6462L65.1936 63.1122V65.0322H60.6452V60.1672C63.2544 59.4751 65.1936 57.072 65.1936 54.1935C65.1936 50.7778 62.4736 48 59.129 48C55.7845 48 53.0645 50.7778 53.0645 54.1935C53.0645 57.072 55.0037 59.4751 57.6129 60.1672V65.0322H53.0645V63.1122L52.4975 62.6462C49.9671 60.5729 48.5161 57.4932 48.5161 54.1935C48.5161 48.2183 53.2783 43.3548 59.129 43.3548C64.9798 43.3548 69.742 48.2183 69.742 54.1935C69.742 57.4932 68.291 60.5729 65.7606 62.6462Z" fill="white"/>
</svg>
