<svg width="83" height="92" viewBox="0 0 83 92" fill="#fff" xmlns="http://www.w3.org/2000/svg">
<path d="M63.7664 35.9371C62.9875 35.9371 62.3537 36.6397 62.3537 37.5031C62.3537 38.3665 62.9875 39.069 63.7664 39.069C64.5454 39.069 65.1792 38.3665 65.1792 37.5031C65.1792 36.6397 64.5454 35.9371 63.7664 35.9371Z" fill="white"/>
<path d="M27.0131 43.0313C26.2342 43.0313 25.6004 43.7338 25.6004 44.5973C25.6004 45.4607 26.2342 46.1632 27.0131 46.1632C27.7921 46.1632 28.4259 45.4607 28.4259 44.5973C28.4259 43.7338 27.7921 43.0313 27.0131 43.0313Z" fill="white"/>
<path d="M25.2472 48.9037C24.4682 48.9037 23.8344 49.6062 23.8344 50.4696C23.8344 51.3331 24.4682 52.0356 25.2472 52.0356C26.0261 52.0356 26.6599 51.3331 26.6599 50.4696C26.6599 49.6062 26.0261 48.9037 25.2472 48.9037Z" fill="white"/>
<path d="M82.0675 2.21505C81.9686 1.61411 81.5444 1.14374 81.0022 1.03431C77.6075 0.348034 74.1346 0 70.6797 0C55.3921 0 41.0206 6.59757 30.2126 18.5775C17.0896 33.1233 11.1572 53.8312 14.2653 74.1121L0.388577 89.4939C-0.128671 90.0672 -0.128671 90.9966 0.388577 91.5699C0.647114 91.8567 0.986177 92 1.32506 92C1.66395 92 2.00302 91.8567 2.26155 91.5699L16.1407 76.1858C19.3152 76.783 22.5515 77.0893 25.7732 77.0895C41.0603 77.0895 55.4326 70.4914 66.2402 58.5118C79.5276 43.7838 85.4443 22.7383 82.0675 2.21505ZM64.3671 56.4357C54.0592 67.8614 40.3529 74.1536 25.7733 74.1534C23.3342 74.1534 20.8862 73.9684 18.4658 73.6086L40.6226 49.0493H66.0744C66.8061 49.0493 67.3989 48.392 67.3989 47.5812C67.3989 46.7705 66.8061 46.1131 66.0744 46.1131H43.2715L59.4046 28.2307C59.9218 27.6574 59.9218 26.728 59.4046 26.1546C58.8871 25.5813 58.0487 25.5813 57.5314 26.1546L41.3983 44.0371V18.7474C41.3983 17.9367 40.8053 17.2794 40.0739 17.2794C39.3424 17.2794 38.7494 17.9367 38.7494 18.7474V46.9732L16.5898 71.5357C14.3271 52.8663 20.02 34.0279 32.0857 20.6538C42.3935 9.22838 56.0996 2.93617 70.6797 2.93617C73.668 2.93617 76.671 3.20904 79.6191 3.74792C82.4865 23.0022 76.8224 42.6301 64.3671 56.4357Z" fill="white"/>
<path d="M75.1539 6.62207L61.2775 22.0023C60.7601 22.5757 60.7601 23.5052 61.2773 24.0786C61.536 24.3653 61.8749 24.5086 62.214 24.5086C62.5529 24.5086 62.8919 24.3653 63.1505 24.0786L77.0268 8.69833C77.5443 8.12499 77.5443 7.1954 77.027 6.62207C76.5098 6.04893 75.6711 6.04873 75.1539 6.62207Z" fill="white"/>
</svg>
