<svg width="290" height="305" viewBox="0 0 290 305" fill="none" xmlns="http://www.w3.org/2000/svg">
<path d="M82.56 257V262H92.2358L86.6385 254.108L82.56 257ZM57.856 257L53.711 259.796L55.1977 262H57.856V257ZM28.928 214.12L24.7225 211.416L22.941 214.186L24.783 216.916L28.928 214.12ZM56.832 170.728V165.728H54.1027L52.6265 168.024L56.832 170.728ZM80.256 170.728L84.4371 173.47L89.5142 165.728H80.256V170.728ZM51.968 213.864L47.7869 211.122L45.9164 213.974L47.8895 216.756L51.968 213.864ZM28.032 257V262H33.032V257H28.032ZM8.32 257H3.32V262H8.32V257ZM8.32 170.728V165.728H3.32V170.728H8.32ZM28.032 170.728H33.032V165.728H28.032V170.728ZM82.56 252H57.856V262H82.56V252ZM62.001 254.204L33.073 211.324L24.783 216.916L53.711 259.796L62.001 254.204ZM33.1335 216.824L61.0375 173.432L52.6265 168.024L24.7225 211.416L33.1335 216.824ZM56.832 175.728H80.256V165.728H56.832V175.728ZM76.0749 167.986L47.7869 211.122L56.1491 216.606L84.4371 173.47L76.0749 167.986ZM47.8895 216.756L78.4815 259.892L86.6385 254.108L56.0465 210.972L47.8895 216.756ZM28.032 252H8.32V262H28.032V252ZM13.32 257V170.728H3.32V257H13.32ZM8.32 175.728H28.032V165.728H8.32V175.728ZM23.032 170.728V257H33.032V170.728H23.032ZM162.318 245.736L158.67 242.316L158.669 242.318L162.318 245.736ZM101.262 245.736L104.911 242.318L104.911 242.318L101.262 245.736ZM101.262 181.608L97.6143 178.188L97.6131 178.19L101.262 181.608ZM162.446 181.48L166.095 178.062L166.095 178.062L162.446 181.48ZM116.622 194.408L120.526 197.531L120.54 197.514L120.554 197.497L116.622 194.408ZM116.622 232.936L112.69 236.025L112.704 236.042L112.718 236.059L116.622 232.936ZM147.086 232.936L150.99 236.059L151.004 236.042L151.018 236.025L147.086 232.936ZM147.086 194.408L143.154 197.497L143.168 197.514L143.182 197.531L147.086 194.408ZM168.838 213.608C168.838 225.805 165.33 235.213 158.67 242.316L165.966 249.156C174.666 239.875 178.838 227.864 178.838 213.608H168.838ZM158.669 242.318C152.16 249.266 143.405 252.896 131.854 252.896V262.896C145.732 262.896 157.287 258.42 165.967 249.154L158.669 242.318ZM131.854 252.896C120.206 252.896 111.413 249.258 104.911 242.318L97.6131 249.154C106.3 258.427 117.902 262.896 131.854 262.896V252.896ZM104.911 242.318C98.3511 235.316 94.87 225.917 94.87 213.608H84.87C84.87 227.923 88.9836 239.943 97.6131 249.154L104.911 242.318ZM94.87 213.608C94.87 201.394 98.3455 192.034 104.911 185.026L97.6131 178.19C88.9892 187.395 84.87 199.369 84.87 213.608H94.87ZM104.91 185.028C111.515 177.982 120.32 174.32 131.854 174.32V164.32C117.959 164.32 106.369 168.85 97.6143 178.188L104.91 185.028ZM131.854 174.32C143.502 174.32 152.295 177.958 158.797 184.898L166.095 178.062C157.408 168.789 145.806 164.32 131.854 164.32V174.32ZM158.797 184.898C165.357 191.9 168.838 201.299 168.838 213.608H178.838C178.838 199.293 174.724 187.273 166.095 178.062L158.797 184.898ZM112.718 191.285C108.041 197.13 105.99 204.761 105.99 213.608H115.99C115.99 206.242 117.693 201.073 120.526 197.531L112.718 191.285ZM105.99 213.608C105.99 222.461 108.044 230.111 112.69 236.025L120.554 229.847C117.691 226.204 115.99 220.968 115.99 213.608H105.99ZM112.718 236.059C117.49 242.025 124.048 244.976 131.854 244.976V234.976C126.86 234.976 123.264 233.234 120.526 229.813L112.718 236.059ZM131.854 244.976C139.66 244.976 146.218 242.025 150.99 236.059L143.182 229.813C140.444 233.234 136.848 234.976 131.854 234.976V244.976ZM151.018 236.025C155.664 230.111 157.718 222.461 157.718 213.608H147.718C147.718 220.968 146.017 226.204 143.154 229.847L151.018 236.025ZM157.718 213.608C157.718 204.761 155.667 197.13 150.99 191.285L143.182 197.531C146.015 201.073 147.718 206.242 147.718 213.608H157.718ZM151.018 191.319C146.258 185.261 139.694 182.24 131.854 182.24V192.24C136.814 192.24 140.404 193.997 143.154 197.497L151.018 191.319ZM131.854 182.24C124.014 182.24 117.45 185.261 112.69 191.319L120.554 197.497C123.304 193.997 126.894 192.24 131.854 192.24V182.24ZM207.032 229.096V224.096H202.032V229.096H207.032ZM207.032 257V262H212.032V257H207.032ZM187.32 257H182.32V262H187.32V257ZM187.32 170.728V165.728H182.32V170.728H187.32ZM240.184 178.792L236.813 182.484L236.826 182.496L236.839 182.508L240.184 178.792ZM239.8 221.288L236.594 217.451L236.581 217.462L236.568 217.473L239.8 221.288ZM207.032 186.472V181.472H202.032V186.472H207.032ZM207.032 213.48H202.032V218.48H207.032V213.48ZM217.016 224.096H207.032V234.096H217.016V224.096ZM202.032 229.096V257H212.032V229.096H202.032ZM207.032 252H187.32V262H207.032V252ZM192.32 257V170.728H182.32V257H192.32ZM187.32 175.728H217.016V165.728H187.32V175.728ZM217.016 175.728C225.588 175.728 232.023 178.111 236.813 182.484L243.555 175.1C236.569 168.721 227.559 165.728 217.016 165.728V175.728ZM236.839 182.508C241.724 186.904 244.144 192.364 244.144 199.272H254.144C254.144 189.626 250.591 181.432 243.529 175.076L236.839 182.508ZM244.144 199.272C244.144 207.537 241.491 213.359 236.594 217.451L243.006 225.125C250.568 218.806 254.144 209.951 254.144 199.272H244.144ZM236.568 217.473C231.439 221.818 225.033 224.096 217.016 224.096V234.096C227.089 234.096 235.873 231.168 243.032 225.103L236.568 217.473ZM214.712 181.472H207.032V191.472H214.712V181.472ZM202.032 186.472V213.48H212.032V186.472H202.032ZM207.032 218.48H213.56V208.48H207.032V218.48ZM213.56 218.48C219.425 218.48 224.757 217.156 228.637 213.626C232.606 210.015 234.176 204.907 234.176 199.272H224.176C224.176 203.109 223.143 205.105 221.907 206.23C220.581 207.436 218.105 208.48 213.56 208.48V218.48ZM234.176 199.272C234.176 194.065 232.677 189.294 228.874 185.928C225.187 182.665 220.164 181.472 214.712 181.472V191.472C218.903 191.472 221.112 192.412 222.246 193.416C223.264 194.317 224.176 195.945 224.176 199.272H234.176ZM280.437 257V262H285.437V257H280.437ZM260.725 257H255.725V262H260.725V257ZM260.725 170.728V165.728H255.725V170.728H260.725ZM280.437 170.728H285.437V165.728H280.437V170.728ZM280.437 252H260.725V262H280.437V252ZM265.725 257V170.728H255.725V257H265.725ZM260.725 175.728H280.437V165.728H260.725V175.728ZM275.437 170.728V257H285.437V170.728H275.437Z" fill="#FCD900"/>
<path d="M61.952 144V149H66.952V144H61.952ZM8.32 144H3.32V149H8.32V144ZM8.32 57.728V52.728H3.32V57.728H8.32ZM61.44 57.728H66.44V52.728H61.44V57.728ZM61.44 73.472V78.472H66.44V73.472H61.44ZM28.16 73.472V68.472H23.16V73.472H28.16ZM28.16 93.056H23.16V98.056H28.16V93.056ZM57.856 93.056H62.856V88.056H57.856V93.056ZM57.856 108.672V113.672H62.856V108.672H57.856ZM28.16 108.672V103.672H23.16V108.672H28.16ZM28.16 128.256H23.16V133.256H28.16V128.256ZM61.952 128.256H66.952V123.256H61.952V128.256ZM61.952 139H8.32V149H61.952V139ZM13.32 144V57.728H3.32V144H13.32ZM8.32 62.728H61.44V52.728H8.32V62.728ZM56.44 57.728V73.472H66.44V57.728H56.44ZM61.44 68.472H28.16V78.472H61.44V68.472ZM23.16 73.472V93.056H33.16V73.472H23.16ZM28.16 98.056H57.856V88.056H28.16V98.056ZM52.856 93.056V108.672H62.856V93.056H52.856ZM57.856 103.672H28.16V113.672H57.856V103.672ZM23.16 108.672V128.256H33.16V108.672H23.16ZM28.16 133.256H61.952V123.256H28.16V133.256ZM56.952 128.256V144H66.952V128.256H56.952Z" fill="#FCD900"/>
<path d="M136.536 97.8259L136.532 97.8093C135.703 91.8621 135.546 88.4888 136.306 82.0132C136.575 80.3971 136.846 79.271 137.317 78.1473C137.791 77.0157 138.515 75.7741 139.809 74.0128C141.835 71.6094 143.458 70.0155 145.193 68.7297C146.943 67.4338 148.9 66.3817 151.675 65.1497C155.052 63.7186 157.243 63.0178 158.999 62.6255C160.602 62.2673 161.894 62.1513 163.583 61.9996C163.662 61.9925 163.741 61.9854 163.822 61.9781C166.507 62.3827 167.84 63.3904 169.134 64.6086C169.305 64.7698 169.811 65.3912 170.593 66.544C171.325 67.6236 172.191 69.0039 173.067 70.5171C174.843 73.5859 176.55 77.0062 177.327 79.4818C178.966 84.6989 179.767 89.3537 179.739 97.2486C179.711 105.176 179.191 109.705 176.83 117.122C174.724 123.735 173.16 127.29 169.236 132.749C165.219 138.337 162.283 140.946 156.608 145.005C150.37 149.467 146.748 151.764 139.631 153.394C136.973 154.003 134.213 154.422 131.786 154.579C129.287 154.741 127.396 154.607 126.333 154.281C125.324 153.972 124.701 153.474 124.281 152.876C123.838 152.244 123.518 151.347 123.4 150.123C123.344 149.536 123.732 148.46 124.6 147.163C124.982 146.592 125.378 146.094 125.68 145.738C125.83 145.561 125.954 145.423 126.037 145.333C126.077 145.289 126.107 145.256 126.126 145.237L126.186 145.179C126.248 145.118 126.337 145.03 126.45 144.918C126.676 144.693 126.998 144.369 127.389 143.961C128.172 143.147 129.241 141.995 130.389 140.64C132.633 137.99 135.379 134.333 136.728 130.812C138.732 125.587 138.833 122.039 138.979 116.956C138.984 116.776 138.99 116.595 138.995 116.411C139.106 112.604 138.461 107.879 137.824 104.219C137.502 102.365 137.173 100.739 136.925 99.5753C136.8 98.9929 136.696 98.5251 136.622 98.201C136.585 98.0389 136.556 97.9127 136.536 97.8259Z" fill="#FCD900" stroke="#FCD900" stroke-width="5"/>
<path d="M93.1007 139.792L93.1006 139.791C91.9605 138.843 90.6512 137.244 89.5595 135.748C89.0314 135.024 88.5848 134.368 88.2708 133.893C88.1141 133.656 87.9914 133.466 87.909 133.337C87.8697 133.275 87.8397 133.228 87.8196 133.196L87.8132 133.184C87.7882 133.139 87.751 133.071 87.7028 132.984C87.6064 132.808 87.466 132.552 87.2917 132.23C86.943 131.587 86.4595 130.685 85.9218 129.654C84.8371 127.575 83.5651 125.034 82.721 123.026C80.6679 118.143 79.6019 115.484 78.5611 110.505C77.4503 105.191 77.2738 102.152 77.3948 96.674C77.5122 91.3628 78.0316 88.4436 79.139 83.1278C80.2648 77.7233 80.9919 74.7958 83.0237 69.8517C85.124 64.741 86.5714 62.0396 89.7034 57.5701C93.7119 51.8497 96.1684 48.8474 101.585 44.9172C106.289 41.5031 109.281 40.112 114.893 38.2537C120.265 36.4748 123.364 35.8354 128.982 35.6663C134.37 35.5041 137.324 35.6166 142.312 37.1263C143.329 37.4341 144.254 37.692 145.103 37.9288C148.983 39.0108 151.281 39.6515 153.532 42.5896C153.951 43.1359 154.298 43.562 154.584 43.9135C155.543 45.0904 155.822 45.4321 155.819 46.6539C155.818 47.0608 155.571 47.7321 154.728 48.6023C153.92 49.4361 152.814 50.1839 151.777 50.704C150.84 51.1734 149.623 51.5073 147.988 51.916C147.869 51.9458 147.747 51.976 147.624 52.0067C146.158 52.3717 144.438 52.7995 142.762 53.454C139.112 54.8793 136.976 55.8588 133.602 58.0514C133.194 58.3163 132.794 58.5666 132.399 58.8137C130.471 60.0195 128.67 61.1454 126.785 63.4837C124.5 66.318 123.774 68.6258 122.861 71.5311C122.8 71.7237 122.739 71.9189 122.676 72.1171C121.54 75.7093 121.221 77.946 121.03 81.6514C120.871 84.7386 121.123 86.8132 121.428 89.3253C121.494 89.8737 121.563 90.4429 121.631 91.048C121.998 94.3226 122.72 96.8966 123.376 99.2369C123.43 99.4286 123.484 99.6188 123.536 99.8077C124.231 102.299 124.828 104.618 124.996 107.657C125.234 111.933 125.165 114.286 124.56 118.455C124.493 118.912 124.431 119.349 124.371 119.769C123.761 124.059 123.408 126.542 121.443 130.128C119.488 133.696 117.981 135.424 114.768 137.858C112 139.955 110.242 140.783 106.838 141.825C106.222 142.014 105.667 142.192 105.157 142.355C102.4 143.24 100.975 143.697 98.5511 143.069C96.4054 142.514 95.3926 141.698 93.2288 139.898L93.2287 139.898L93.1007 139.792Z" fill="#FCD900" stroke="#FCD900" stroke-width="5"/>
</svg>
