<svg width="290" height="305" viewBox="0 0 290 305" fill="none" xmlns="http://www.w3.org/2000/svg">
<path d="M136.536 97.8259L136.532 97.8093C135.703 91.8621 135.546 88.4888 136.306 82.0132C136.575 80.3971 136.846 79.271 137.317 78.1473C137.791 77.0157 138.515 75.7741 139.809 74.0128C141.835 71.6094 143.458 70.0155 145.193 68.7297C146.943 67.4338 148.9 66.3817 151.675 65.1497C155.052 63.7186 157.243 63.0178 158.999 62.6255C160.602 62.2673 161.894 62.1513 163.583 61.9996C163.662 61.9925 163.741 61.9854 163.822 61.9781C166.507 62.3827 167.84 63.3904 169.134 64.6086C169.305 64.7698 169.811 65.3912 170.593 66.544C171.325 67.6236 172.191 69.0039 173.067 70.5171C174.843 73.5859 176.55 77.0062 177.327 79.4818C178.966 84.6989 179.767 89.3537 179.739 97.2486C179.711 105.176 179.191 109.705 176.83 117.122C174.724 123.735 173.16 127.29 169.236 132.749C165.219 138.337 162.283 140.946 156.608 145.005C150.37 149.467 146.748 151.764 139.631 153.394C136.973 154.003 134.213 154.422 131.786 154.579C129.287 154.741 127.396 154.607 126.333 154.281C125.324 153.972 124.701 153.474 124.281 152.876C123.838 152.244 123.518 151.347 123.4 150.123C123.344 149.536 123.732 148.46 124.6 147.163C124.982 146.592 125.378 146.094 125.68 145.738C125.83 145.561 125.954 145.423 126.037 145.333C126.077 145.289 126.107 145.256 126.126 145.237L126.186 145.179C126.248 145.118 126.337 145.03 126.45 144.918C126.676 144.693 126.998 144.369 127.389 143.961C128.172 143.147 129.241 141.995 130.389 140.64C132.633 137.99 135.379 134.333 136.728 130.812C138.732 125.587 138.833 122.039 138.979 116.956C138.984 116.776 138.99 116.595 138.995 116.411C139.106 112.604 138.461 107.879 137.824 104.219C137.502 102.365 137.173 100.739 136.925 99.5753C136.8 98.9929 136.696 98.5251 136.622 98.201C136.585 98.0389 136.556 97.9127 136.536 97.8259Z" fill="#fff" stroke="#fff" stroke-width="5"/>
<path d="M93.1007 139.792L93.1006 139.791C91.9605 138.843 90.6512 137.244 89.5595 135.748C89.0314 135.024 88.5848 134.368 88.2708 133.893C88.1141 133.656 87.9914 133.466 87.909 133.337C87.8697 133.275 87.8397 133.228 87.8196 133.196L87.8132 133.184C87.7882 133.139 87.751 133.071 87.7028 132.984C87.6064 132.808 87.466 132.552 87.2917 132.23C86.943 131.587 86.4595 130.685 85.9218 129.654C84.8371 127.575 83.5651 125.034 82.721 123.026C80.6679 118.143 79.6019 115.484 78.5611 110.505C77.4503 105.191 77.2738 102.152 77.3948 96.674C77.5122 91.3628 78.0316 88.4436 79.139 83.1278C80.2648 77.7233 80.9919 74.7958 83.0237 69.8517C85.124 64.741 86.5714 62.0396 89.7034 57.5701C93.7119 51.8497 96.1684 48.8474 101.585 44.9172C106.289 41.5031 109.281 40.112 114.893 38.2537C120.265 36.4748 123.364 35.8354 128.982 35.6663C134.37 35.5041 137.324 35.6166 142.312 37.1263C143.329 37.4341 144.254 37.692 145.103 37.9288C148.983 39.0108 151.281 39.6515 153.532 42.5896C153.951 43.1359 154.298 43.562 154.584 43.9135C155.543 45.0904 155.822 45.4321 155.819 46.6539C155.818 47.0608 155.571 47.7321 154.728 48.6023C153.92 49.4361 152.814 50.1839 151.777 50.704C150.84 51.1734 149.623 51.5073 147.988 51.916C147.869 51.9458 147.747 51.976 147.624 52.0067C146.158 52.3717 144.438 52.7995 142.762 53.454C139.112 54.8793 136.976 55.8588 133.602 58.0514C133.194 58.3163 132.794 58.5666 132.399 58.8137C130.471 60.0195 128.67 61.1454 126.785 63.4837C124.5 66.318 123.774 68.6258 122.861 71.5311C122.8 71.7237 122.739 71.9189 122.676 72.1171C121.54 75.7093 121.221 77.946 121.03 81.6514C120.871 84.7386 121.123 86.8132 121.428 89.3253C121.494 89.8737 121.563 90.4429 121.631 91.048C121.998 94.3226 122.72 96.8966 123.376 99.2369C123.43 99.4286 123.484 99.6188 123.536 99.8077C124.231 102.299 124.828 104.618 124.996 107.657C125.234 111.933 125.165 114.286 124.56 118.455C124.493 118.912 124.431 119.349 124.371 119.769C123.761 124.059 123.408 126.542 121.443 130.128C119.488 133.696 117.981 135.424 114.768 137.858C112 139.955 110.242 140.783 106.838 141.825C106.222 142.014 105.667 142.192 105.157 142.355C102.4 143.24 100.975 143.697 98.5511 143.069C96.4054 142.514 95.3926 141.698 93.2288 139.898L93.2287 139.898L93.1007 139.792Z" fill="#fff" stroke="#fff" stroke-width="5"/>
<path d="M61.952 144H8.32V57.728H61.44V73.472H28.16V93.056H57.856V108.672H28.16V128.256H61.952V144Z" fill="#fff"/>
<path d="M82.56 257H57.856L28.928 214.12L56.832 170.728H80.256L51.968 213.864L82.56 257ZM28.032 257H8.32V170.728H28.032V257ZM173.838 213.608C173.838 226.835 169.998 237.544 162.318 245.736C154.723 253.843 144.569 257.896 131.854 257.896C119.054 257.896 108.857 253.843 101.262 245.736C93.6673 237.629 89.87 226.92 89.87 213.608C89.87 200.381 93.6673 189.715 101.262 181.608C108.942 173.416 119.139 169.32 131.854 169.32C144.654 169.32 154.851 173.373 162.446 181.48C170.041 189.587 173.838 200.296 173.838 213.608ZM116.622 194.408C112.867 199.101 110.99 205.501 110.99 213.608C110.99 221.715 112.867 228.157 116.622 232.936C120.377 237.629 125.454 239.976 131.854 239.976C138.254 239.976 143.331 237.629 147.086 232.936C150.841 228.157 152.718 221.715 152.718 213.608C152.718 205.501 150.841 199.101 147.086 194.408C143.331 189.629 138.254 187.24 131.854 187.24C125.454 187.24 120.377 189.629 116.622 194.408ZM217.016 229.096H207.032V257H187.32V170.728H217.016C226.573 170.728 234.296 173.416 240.184 178.792C246.157 184.168 249.144 190.995 249.144 199.272C249.144 208.744 246.029 216.083 239.8 221.288C233.656 226.493 226.061 229.096 217.016 229.096ZM214.712 186.472H207.032V213.48H213.56C223.971 213.48 229.176 208.744 229.176 199.272C229.176 190.739 224.355 186.472 214.712 186.472ZM280.437 257H260.725V170.728H280.437V257Z" fill="#fff"/>
</svg>
