<svg width="104" height="100" viewBox="0 0 104 100" fill="#fff" xmlns="http://www.w3.org/2000/svg">
<g clip-path="url(#clip0_23_56)">
<path d="M58.9501 44.9989C59.9075 44.9989 60.6836 44.2527 60.6836 43.3322C60.6836 42.4116 59.9075 41.6654 58.9501 41.6654C57.9928 41.6654 57.2167 42.4116 57.2167 43.3322C57.2167 44.2527 57.9928 44.9989 58.9501 44.9989Z" fill="white"/>
<path d="M39.8825 65C40.8399 65 41.6159 64.2537 41.6159 63.3332C41.6159 62.4127 40.8399 61.6664 39.8825 61.6664C38.9252 61.6664 38.1491 62.4127 38.1491 63.3332C38.1491 64.2537 38.9252 65 39.8825 65Z" fill="white"/>
<path d="M74.5509 70.0002C75.5083 70.0002 76.2843 69.254 76.2843 68.3334C76.2843 67.4129 75.5083 66.6667 74.5509 66.6667C73.5936 66.6667 72.8175 67.4129 72.8175 68.3334C72.8175 69.254 73.5936 70.0002 74.5509 70.0002Z" fill="white"/>
<path d="M86.6849 53.3326C87.6422 53.3326 88.4183 52.5864 88.4183 51.6659C88.4183 50.7454 87.6422 49.9991 86.6849 49.9991C85.7275 49.9991 84.9514 50.7454 84.9514 51.6659C84.9514 52.5864 85.7275 53.3326 86.6849 53.3326Z" fill="white"/>
<path d="M67.6172 38.3319C68.5746 38.3319 69.3507 37.5857 69.3507 36.6652C69.3507 35.7446 68.5746 34.9984 67.6172 34.9984C66.6599 34.9984 65.8838 35.7446 65.8838 36.6652C65.8838 37.5857 66.6599 38.3319 67.6172 38.3319Z" fill="white"/>
<path d="M92.7293 73.7854C90.7567 73.2653 88.7546 73.1953 86.7854 73.5737C86.1631 73.6937 85.5512 73.5653 85.1092 73.222L82.6633 71.3352C81.9752 70.8052 81.7602 69.8685 82.1416 69.0618C82.8367 67.5917 83.4122 66.055 83.8507 64.4966C84.0726 63.7098 84.6342 63.0481 85.3969 62.6781C86.0868 62.3414 86.8444 62.2964 87.5256 62.5515C90.7515 63.7515 94.3709 63.5582 97.4511 62.0348C103.061 59.2546 105.538 52.4793 102.972 46.929C101.639 44.0505 99.2192 41.8554 96.1545 40.747C93.0899 39.6386 89.7634 39.757 86.7906 41.0771C86.2481 41.3187 85.657 41.6671 84.9896 42.1371C84.2408 42.6621 83.3602 42.8621 82.5247 42.6971C81.6926 42.5355 80.9733 42.0321 80.507 41.2787C79.512 39.6786 78.3142 38.2469 77.1077 36.8052C76.0053 35.4868 75.8181 33.6567 76.6276 32.1466L79.1913 27.363C79.9193 26.0013 81.2298 25.0746 82.6131 24.9429C83.8975 24.8212 85.1716 24.4862 86.3971 23.9462C90.2939 22.2328 93.0257 18.7259 93.5249 14.7974C93.9947 11.1206 92.6929 7.54038 89.9524 4.97192C87.2118 2.40345 83.459 1.24506 79.6299 1.79509C74.5007 2.52846 70.3405 6.47866 69.5136 11.4006C69.1323 13.664 69.4287 15.9508 70.3699 18.0092C70.9922 19.3743 70.994 20.8227 70.3751 21.9794L68.3678 25.728C67.3399 27.643 65.0223 28.6298 62.9873 28.0181C61.1516 27.4664 58.0921 27.093 55.8473 26.8763C55.2198 26.8163 54.6981 26.378 54.5525 25.7913L52.5781 17.7842C52.4689 17.3425 52.6076 16.8675 52.956 16.4792C55.0448 14.159 55.8959 11.0906 55.2909 8.05207C54.5109 4.16188 51.2936 1.01172 47.286 0.213345C44.1623 -0.406686 40.959 0.325018 38.5201 2.23678C36.0811 4.14687 34.6823 6.97535 34.6823 9.9955C34.6823 14.1374 37.4037 17.8926 41.4565 19.3376C42.025 19.541 42.4185 19.9243 42.5329 20.391L44.1138 26.8113C44.2871 27.5097 43.8659 28.2264 43.1379 28.4798C40.803 29.2881 38.5755 30.3649 36.5145 31.6782C35.7293 32.1799 34.6649 32.1583 33.9837 31.6299C33.0893 30.9332 33.1343 29.8748 33.4411 29.1798C34.7291 26.273 35.0203 23.0678 34.2818 19.9077C32.9506 14.2207 28.0519 9.67548 22.089 8.60043C16.8662 7.65038 11.7422 9.16546 8.0396 12.7356C4.33355 16.3058 2.77694 21.2344 3.77019 26.2563C4.95238 32.2433 9.94289 36.9935 16.1901 38.0819C18.8509 38.5403 21.4615 38.3719 23.9576 37.5835C24.7116 37.3419 25.5801 37.6135 26.1105 38.2519L26.8039 39.0803C27.3447 39.7286 27.4054 40.6137 26.9564 41.3371C24.7342 44.9189 23.3388 48.8324 22.8101 52.966C22.6957 53.856 21.9832 54.5311 21.0819 54.6094L17.7936 54.8927C17.0239 54.9661 16.4398 54.5161 16.1537 54.246C14.5243 52.7176 12.4494 51.8309 10.1526 51.6809C6.28885 51.4342 2.666 53.4677 1.00885 56.7412C-0.270416 59.268 -0.315485 62.1548 0.889242 64.6649C2.09397 67.175 4.37688 69.0118 7.15729 69.7051C11.191 70.7119 15.3928 69.0901 17.6029 65.6716C17.9132 65.1916 18.5233 64.8699 19.234 64.8066L22.0612 64.5632C22.9418 64.4766 23.7739 65.0216 24.0564 65.8666C25.2715 69.4918 27.1783 72.8286 29.7282 75.7871C30.0159 76.1188 29.9968 76.6205 29.6848 76.9538C29.3832 77.2755 28.9117 77.2739 28.572 77.1755C27.1176 76.7288 25.5974 76.5722 24.0512 76.7155C18.896 77.1855 14.6613 81.1007 13.98 86.0226C13.4947 89.5461 14.7427 92.9546 17.4105 95.3748C20.0782 97.7965 23.6941 98.7999 27.3551 98.1282C31.3714 97.3915 34.7343 94.4631 35.9217 90.6662C36.4642 88.9278 36.5578 87.166 36.2025 85.4293C36.1505 85.1759 36.2371 84.8992 36.4313 84.6926L37.792 83.2392C38.0798 82.9308 38.5495 82.8408 38.9031 83.0275C39.7993 83.4975 40.7336 83.9292 41.6766 84.3109C42.8276 84.7759 43.5175 85.9826 43.3944 87.3094C43.287 88.4577 43.3615 89.6278 43.6163 90.7812C44.6841 95.6581 49.035 99.4233 54.1971 99.935C54.6166 99.975 55.0361 99.9967 55.4556 99.9967C58.4561 99.9967 61.3735 98.9349 63.6079 96.9965C66.156 94.7881 67.6172 91.6279 67.6172 88.3311C67.6172 87.601 67.5444 86.866 67.4023 86.1426C67.1302 84.7859 67.6935 83.5142 68.8376 82.9041C70.6369 81.9441 72.3408 80.8107 73.9044 79.5356C74.4712 79.074 75.1195 78.8706 75.6343 78.9973C76.4144 79.1856 76.7992 79.6273 76.9829 79.9623C77.2429 80.4357 77.2776 81.009 77.0783 81.5324C76.3 83.5708 76.0902 85.8026 76.4716 87.9844C77.4024 93.2847 81.9266 97.4915 87.4753 98.2149C91.4812 98.7333 95.4196 97.5065 98.3005 94.8381C101.181 92.1713 102.612 88.4361 102.223 84.5892C101.708 79.4906 97.8932 75.1471 92.7293 73.7854ZM95.8963 92.4396C93.7815 94.3947 90.8711 95.2981 87.9416 94.9131C83.8819 94.3847 80.5711 91.3079 79.8899 87.4327C79.6021 85.7993 79.7512 84.2025 80.3302 82.6841C80.8692 81.2741 80.7652 79.7173 80.0476 78.4089C79.3213 77.0872 78.0559 76.1505 76.482 75.7671C74.8543 75.3771 73.1001 75.8188 71.6579 76.9972C70.2694 78.1322 68.7544 79.139 67.1544 79.9923C64.7138 81.2924 63.4432 84.0192 63.9944 86.771C64.0967 87.2877 64.1487 87.8127 64.1487 88.3344C64.1487 90.6895 63.1034 92.9463 61.2851 94.5247C59.4424 96.1231 57.0538 96.8815 54.5525 96.6215C50.8724 96.2565 47.7713 93.5747 47.0086 90.0962C46.8266 89.2645 46.7711 88.4294 46.8474 87.6094C47.1022 84.8309 45.5664 82.2724 43.02 81.2424C42.1828 80.904 41.3559 80.5207 40.5603 80.1057C39.9085 79.764 39.1996 79.5973 38.4941 79.5973C37.2824 79.5973 36.0846 80.0873 35.2162 81.0124L33.8554 82.4658C32.935 83.4475 32.5398 84.7976 32.8015 86.0776C33.0494 87.2777 32.9818 88.4994 32.6022 89.7112C31.7823 92.3296 29.4681 94.3514 26.7068 94.8581C24.1569 95.3248 21.64 94.6331 19.7939 92.9546C17.9478 91.2779 17.0829 88.9128 17.4191 86.4643C17.8837 83.1191 20.8756 80.3557 24.3806 80.0357C25.4622 79.9407 26.5161 80.044 27.5215 80.354C29.274 80.889 31.0924 80.4424 32.2624 79.189C33.722 77.6339 33.7792 75.2571 32.3976 73.662C30.132 71.0335 28.4385 68.0684 27.3603 64.8482C26.5768 62.5115 24.2609 61.0397 21.7562 61.2464L18.9272 61.4897C17.1366 61.6447 15.5418 62.5515 14.6613 63.9149C13.2537 66.0883 10.586 67.1184 8.0292 66.4817C6.25938 66.04 4.80504 64.8699 4.03887 63.2715C3.26229 61.6497 3.2935 59.8497 4.129 58.2029C5.17599 56.1361 7.48837 54.8294 9.92209 55.0094C11.3851 55.1044 12.7025 55.6661 13.7339 56.6328C14.9455 57.7712 16.5524 58.3529 18.1038 58.2146L21.3939 57.9312C23.9385 57.7129 25.9372 55.8395 26.2544 53.376C26.7241 49.7041 27.9618 46.2306 29.9362 43.0488C31.1166 41.1471 30.945 38.7153 29.5097 36.9952L28.8181 36.1668C27.3863 34.4517 25.0028 33.7484 22.8759 34.4184C20.9328 35.0351 18.8891 35.1634 16.809 34.8017C11.9606 33.9584 8.0916 30.2748 7.17636 25.6346C6.40152 21.7111 7.61145 17.8676 10.4924 15.0908C13.3768 12.3123 17.3654 11.1472 21.4493 11.8773C26.0706 12.7123 29.8686 16.2341 30.8999 20.6427C31.4772 23.1128 31.2536 25.6129 30.2516 27.8731C29.2376 30.1582 29.8599 32.7083 31.7996 34.22C33.6526 35.6684 36.3828 35.7668 38.4299 34.4601C40.2604 33.2933 42.2382 32.3383 44.3131 31.6182C46.7018 30.7899 48.0677 28.3948 47.4888 26.0463L45.9062 19.626C45.5248 18.0776 44.3131 16.8042 42.6629 16.2158C39.964 15.2524 38.1491 12.754 38.1491 9.99883C38.1491 7.98373 39.0817 6.09864 40.7094 4.82524C42.3613 3.53518 44.4484 3.05349 46.5839 3.48184C49.2378 4.0102 51.3699 6.10197 51.8865 8.68544C52.2973 10.7405 51.7478 12.7356 50.3351 14.3007C49.2638 15.4924 48.8426 17.0842 49.2083 18.5576L51.1827 26.563C51.6681 28.5348 53.4049 29.9948 55.5041 30.1982C58.4492 30.4815 60.7408 30.8382 61.9559 31.2049C65.6446 32.3049 69.635 30.6499 71.4516 27.2597L73.4589 23.5112C74.5613 21.4561 74.5925 18.9626 73.5473 16.6742C72.8747 15.2041 72.665 13.5657 72.9389 11.9356C73.5282 8.43209 76.4906 5.62028 80.143 5.09692C82.8904 4.69857 85.5772 5.53028 87.536 7.3637C89.493 9.19713 90.4221 11.7606 90.0876 14.3957C89.7322 17.1842 87.7665 19.6843 84.9567 20.9194C84.0795 21.3044 83.1782 21.5427 82.2733 21.6294C79.6957 21.8744 77.392 23.4495 76.111 25.8396L73.5473 30.6232C72.1103 33.3033 72.4483 36.5518 74.4556 38.9553C75.5892 40.3103 76.6588 41.5904 77.5307 42.9921C78.5066 44.5589 80.0337 45.6156 81.833 45.9656C83.6393 46.324 85.4905 45.9156 87.0368 44.8289C87.6279 44.4105 88.0179 44.2055 88.2432 44.1039C90.3684 43.1622 92.7466 43.0772 94.9325 43.8672C97.1218 44.6589 98.8518 46.2273 99.8017 48.2824C101.637 52.2459 99.8675 57.0845 95.8633 59.0713C93.6636 60.1597 91.0791 60.293 88.7754 59.4413C87.1633 58.8429 85.4091 58.9329 83.8299 59.703C82.1953 60.4997 80.9837 61.9281 80.507 63.6232C80.1152 65.0099 79.6039 66.3733 78.9868 67.68C77.945 69.8768 78.5655 72.4486 80.4931 73.937L82.939 75.8221C84.1818 76.7838 85.832 77.1589 87.4614 76.8422C88.9054 76.5672 90.3667 76.6188 91.8106 77.0005V77.0022C95.5357 77.9839 98.3993 81.2391 98.772 84.9142C99.0563 87.7411 98.0093 90.4828 95.8963 92.4396Z" fill="white"/>
<path d="M55.4833 61.6664C49.7474 61.6664 45.0828 66.1517 45.0828 71.6669C45.0828 77.1822 49.7474 81.6674 55.4833 81.6674C61.2192 81.6674 65.8838 77.1822 65.8838 71.6669C65.8838 66.1517 61.2175 61.6664 55.4833 61.6664ZM55.4833 78.3339C51.6594 78.3339 48.5496 75.3438 48.5496 71.6669C48.5496 67.9901 51.6594 64.9999 55.4833 64.9999C59.3072 64.9999 62.417 67.9901 62.417 71.6669C62.417 75.3438 59.3072 78.3339 55.4833 78.3339Z" fill="white"/>
<path d="M48.5496 48.3324C48.5496 44.6556 45.4399 41.6654 41.6159 41.6654C37.792 41.6654 34.6823 44.6556 34.6823 48.3324C34.6823 52.0093 37.792 54.9994 41.6159 54.9994C45.4399 54.9994 48.5496 52.0093 48.5496 48.3324ZM41.6159 51.6659C39.704 51.6659 38.1491 50.1708 38.1491 48.3324C38.1491 46.494 39.704 44.9989 41.6159 44.9989C43.5279 44.9989 45.0828 46.494 45.0828 48.3324C45.0828 50.1708 43.5262 51.6659 41.6159 51.6659Z" fill="white"/>
<path d="M71.0841 46.6656C67.2602 46.6656 64.1504 49.6558 64.1504 53.3326C64.1504 57.0095 67.2602 59.9997 71.0841 59.9997C74.908 59.9997 78.0178 57.0095 78.0178 53.3326C78.0178 49.6558 74.908 46.6656 71.0841 46.6656ZM71.0841 56.6662C69.1721 56.6662 67.6172 55.1711 67.6172 53.3326C67.6172 51.4942 69.1721 49.9991 71.0841 49.9991C72.996 49.9991 74.5509 51.4942 74.5509 53.3326C74.5509 55.1711 72.9943 56.6662 71.0841 56.6662Z" fill="white"/>
</g>
<defs>
<clipPath id="clip0_23_56">
<rect width="104" height="100" fill="white"/>
</clipPath>
</defs>
</svg>
