<svg width="400" height="274" viewBox="0 0 400 274" fill="none" xmlns="http://www.w3.org/2000/svg">
<g clip-path="url(#clip0_9_18)">
<path d="M0 25.4739L16.6667 39.6754C33.3333 53.9614 66.6667 82.3644 100 96.0587C133.333 109.753 166.667 108.57 200 129.28C233.333 149.991 266.667 192.595 300 217.11C333.333 241.624 357 254.5 374 262L388.5 268L400 274L383.333 274C366.667 274 333.333 274 300 274C266.667 274 233.333 274 200 274C166.667 274 133.333 274 100 274C66.6666 274 33.3333 274 16.6666 274L-1.08634e-05 274L0 25.4739Z" fill="#EFFFFD"/>
</g>
<defs>
<clipPath id="clip0_9_18">
<rect width="274" height="400" fill="white" transform="translate(400) rotate(90)"/>
</clipPath>
</defs>
</svg>
