<svg width="550" height="675" viewBox="0 0 709 873" fill="none" xmlns="http://www.w3.org/2000/svg">
<g clip-path="url(#clip0_9_15)">
<path d="M153 63L182.5 0.5H711.5V854C702.713 857.515 697.787 859.485 689 863C663.421 866.515 648.079 868.485 622.5 872C590.5 873.5 584.5 874.306 555 870.5C524 866.5 499.5 863 471 854C447 844 434.5 837.389 415 821.5C401.5 810.5 395.5 804 387.5 785.5C373 757 373.615 751.686 366 714C358.385 676.314 351 659 338 627C330.704 609.041 322 589 303 569C268 543 252.538 529.65 217 507L115.5 455L59 415C41 398 36.692 391.917 24 372C11.308 352.083 8.46734 341.159 3 323C3 299 4.0566 279 10 261.5C19 235 19 235.112 41 211C65.4078 184.249 77.5922 162.751 102 136C121.917 107.492 133.083 91.5083 153 63Z" fill="#B8FFF9"/>
</g>
<defs>
<clipPath id="clip0_9_15">
<rect width="709" height="873" fill="white"/>
</clipPath>
</defs>
</svg>
